<?xml version="1.0" encoding="UTF-8" standalone="no"?>
<!DOCTYPE svg PUBLIC "-//W3C//DTD SVG 1.1//EN" "http://www.w3.org/Graphics/SVG/1.1/DTD/svg11.dtd">
<svg width="100%" height="100%" viewBox="0 0 2500 1086" version="1.1" xmlns="http://www.w3.org/2000/svg" xmlns:xlink="http://www.w3.org/1999/xlink" xml:space="preserve" xmlns:serif="http://www.serif.com/" style="fill-rule:evenodd;clip-rule:evenodd;stroke-linejoin:round;stroke-miterlimit:2;">
    <g transform="matrix(1,0,0,1,-0.106842,6.39488e-14)">
        <path d="M28.417,649.298C23.201,649.298 19.061,653.332 18.387,659.083L0.107,797.938L18.387,934.401C19.061,940.152 23.199,944.158 28.417,944.158C33.469,944.158 37.584,940.18 38.39,934.451L38.39,934.423L38.39,934.451L60.057,797.935L38.39,659.055C37.609,653.329 33.444,649.298 28.417,649.298ZM131.22,573.432C130.358,567.465 126.085,563.351 120.815,563.351C115.519,563.351 111.136,567.599 110.411,573.432C110.411,573.485 85.839,797.938 85.839,797.938L110.411,1017.47C111.111,1023.36 115.493,1027.61 120.815,1027.61C126.057,1027.61 130.333,1023.47 131.192,1017.53L159.149,797.938L131.22,573.432ZM518.453,366.347C508.372,366.347 500.037,374.599 499.554,385.084L479.984,798.125L499.554,1065.05C500.065,1075.48 508.372,1083.71 518.453,1083.71C528.481,1083.71 536.789,1075.46 537.38,1065L537.38,1065.08L559.505,798.125L537.38,385.084C536.786,374.599 528.479,366.347 518.453,366.347ZM318.034,509.905C310.292,509.905 303.975,516.088 303.354,524.34L281.31,798.016L303.354,1062.79C303.945,1070.99 310.29,1077.18 318.034,1077.18C325.695,1077.18 332.013,1070.99 332.687,1062.79L357.742,798.016L332.687,524.285C332.013,516.088 325.695,509.905 318.034,509.905ZM722.126,1083.68C734.627,1083.68 744.788,1073.6 745.299,1060.7L764.496,798.259L745.326,248.351C744.816,235.446 734.652,225.365 722.154,225.365C709.544,225.365 699.357,235.474 698.95,248.379L681.933,798.231L698.95,1060.78C699.355,1073.58 709.542,1083.68 722.126,1083.68ZM1139.09,1084.92C1156.3,1084.92 1170.49,1070.76 1170.82,1053.33L1170.82,1053.52L1170.82,1053.33L1184.2,798.42L1170.81,163.318C1170.52,145.925 1156.3,131.732 1139.09,131.732C1121.86,131.732 1107.64,145.9 1107.37,163.346L1095.4,798.206C1095.4,798.61 1107.37,1053.49 1107.37,1053.49C1107.64,1070.75 1121.88,1084.92 1139.09,1084.92ZM929.021,1083.93C943.997,1083.93 956.066,1071.91 956.47,1056.59L956.47,1056.77L972.76,798.314L956.443,244.428C956.039,229.103 943.97,217.115 928.994,217.115C913.911,217.115 901.842,229.106 901.519,244.428L887.03,798.342L901.547,1056.75C901.87,1071.91 913.939,1083.93 929.021,1083.93ZM417.854,1081.51C426.752,1081.51 433.959,1074.38 434.631,1065L458.235,798.019L434.631,544.048C433.987,534.666 426.783,527.594 417.854,527.594C408.823,527.594 401.617,534.717 401.054,544.156L380.27,798.019L401.054,1064.98C401.645,1074.38 408.821,1081.51 417.854,1081.51ZM219.023,1066.88C225.527,1066.88 230.797,1061.75 231.549,1054.65L258.056,797.963L231.575,531.6C230.794,524.477 225.525,519.339 219.021,519.339C212.433,519.339 207.164,524.502 206.492,531.6L183.158,797.963L206.492,1054.6C207.139,1061.72 212.408,1066.88 219.023,1066.88ZM1033.65,235.206C1017.39,235.206 1004.35,248.139 1004.03,264.699L990.803,798.367L1004.03,1055.16C1004.35,1071.51 1017.36,1084.44 1033.65,1084.44C1049.89,1084.44 1062.85,1071.53 1063.23,1054.97L1063.23,1055.19L1078.07,798.395L1063.23,264.643C1062.85,248.139 1049.89,235.206 1033.65,235.206ZM619.912,1084.22C631.15,1084.22 640.425,1075.05 640.963,1063.36L661.61,798.203L640.963,290.693C640.397,278.97 631.15,269.831 619.912,269.831C608.568,269.831 599.321,278.998 598.836,290.693L580.556,798.203L598.863,1063.47C599.318,1075.05 608.565,1084.22 619.912,1084.22ZM850.468,1059.19L850.468,1059.06L868.21,798.287L850.468,229.856C850.036,215.744 838.907,204.668 825.168,204.668C811.349,204.668 800.22,215.716 799.846,229.856L784.092,798.259L799.871,1059.17C800.247,1073.14 811.379,1084.19 825.171,1084.19C838.934,1084.19 850.011,1073.14 850.47,1059.09L850.47,1059.19L850.468,1059.19ZM2192.45,470.627C2150.32,470.627 2110.13,479.149 2073.51,494.499C2049.05,217.383 1816.67,0 1533.21,0C1463.85,0 1396.23,13.658 1336.53,36.75C1313.33,45.729 1307.14,54.977 1306.93,72.908L1306.93,1048.79C1307.17,1067.61 1321.77,1083.28 1340.13,1085.13C1340.91,1085.22 2186.94,1085.64 2192.43,1085.64C2362.22,1085.64 2499.9,947.973 2499.9,778.15C2499.89,608.325 2362.25,470.627 2192.45,470.627ZM1244.07,72.049C1225.6,72.049 1210.44,87.212 1210.17,105.841L1196.3,798.501L1210.2,1049.89C1210.44,1068.25 1225.61,1083.39 1244.07,1083.39C1262.49,1083.39 1277.65,1068.25 1277.92,1049.62L1277.92,1049.92L1293,798.501L1277.92,105.788C1277.65,87.212 1262.49,72.049 1244.07,72.049Z" style="fill:white;fill-rule:nonzero;"/>
    </g>
</svg>
